# xmcd
#
# Track frame offsets: 
#        150
#        17336
#        37821
#        55334
#        75118
#        87203
#        106804
#        121465
#        138791
#        155800
#
# Disc length: 2402 seconds
#
# Revision: 0
# Processed by: cddbd v1.5.2PL0 Copyright (c) Steve Scherf et al.
# Submitted via: ExactAudioCopy v0.99pb4
#
DISCID=6809600a
DTITLE=KC Flynn - Maximum Capacity: 49
DYEAR=1900
DGENRE=Country
TTITLE0=Max Capacity: 49
TTITLE1=Fly
TTITLE2=Chance
TTITLE3=Time Flies
TTITLE4=Yesterdays News
TTITLE5=With This Ring
TTITLE6=Pictures
TTITLE7=Beautiful Dame
TTITLE8=Long Goodbyes
TTITLE9=Hannah Cove Rest Home
EXTD=
EXTT0=
EXTT1=
EXTT2=
EXTT3=
EXTT4=
EXTT5=
EXTT6=
EXTT7=
EXTT8=
EXTT9=
PLAYORDER=
